<svg width="22" height="18" viewBox="0 0 22 18" fill="none" xmlns="http://www.w3.org/2000/svg">
<path d="M20.9999 4L14.9999 7.75C14.6948 7.92721 14.6064 7.75 10.9999 12M10.9999 12C10.4294 12.6723 13.305 9.67721 12.9999 9.5M10.9999 12C10.4294 12.6723 14.8051 7.17721 14.5 7M12.9999 9.5L9.99988 8.5M12.9999 9.5L9.99988 11M12.9999 9.5L10.4999 10M12.9999 9.5L8.5 6.5M0.999878 4L4.5 6L6.99988 7.5M6.99988 7.5L9.99988 8.5M6.99988 7.5L9.99988 11M6.99988 7.5L10.4999 10M6.99988 7.5L8.5 6.5M9.99988 8.5L14.5 7M9.99988 11L14.5 7M10.4999 10L14.5 7M14.5 7L8.5 6.5M14.4999 10.5C15.2449 9.77 15.9999 8.895 15.9999 7.75C15.9999 7.02065 15.7101 6.32118 15.1944 5.80546C14.6787 5.28973 13.9792 5 13.2499 5C12.3699 5 11.7499 5.25 10.9999 6C10.2499 5.25 9.62988 5 8.74988 5C8.02053 5 7.32106 5.28973 6.80533 5.80546C6.28961 6.32118 5.99988 7.02065 5.99988 7.75C5.99988 8.9 6.74988 9.775 7.49988 10.5L10.9999 14L14.4999 10.5ZM2.99988 1H18.9999C20.1044 1 20.9999 1.89543 20.9999 3V15C20.9999 16.1046 20.1044 17 18.9999 17H2.99988C1.89531 17 0.999878 16.1046 0.999878 15V3C0.999878 1.89543 1.89531 1 2.99988 1Z" stroke="white" stroke-width="2" stroke-linecap="round" stroke-linejoin="round"/>
</svg>
