<!DOCTYPE svg PUBLIC "-//W3C//DTD SVG 1.1//EN" "http://www.w3.org/Graphics/SVG/1.1/DTD/svg11.dtd">
<!-- Uploaded to: SVG Repo, www.svgrepo.com, Transformed by: SVG Repo Mixer Tools -->
<svg fill="#ffffff" height="800px" width="800px" version="1.1" id="Layer_1" xmlns="http://www.w3.org/2000/svg" xmlns:xlink="http://www.w3.org/1999/xlink" viewBox="0 0 512 512" xml:space="preserve" stroke="#ffffff">
<g id="SVGRepo_bgCarrier" stroke-width="0"/>
<g id="SVGRepo_tracerCarrier" stroke-linecap="round" stroke-linejoin="round"/>
<g id="SVGRepo_iconCarrier"> <g> <g> <g> <circle cx="175.482" cy="227.478" r="22.086"/> <path d="M512,135.392c0-47.35-38.521-85.872-85.871-85.872c-29.233,0-55.614,14.549-71.247,37.851 c-61.772-49.635-133.951-51.271-197.762,0c-15.633-23.303-42.014-37.851-71.248-37.851C38.521,49.519,0,88.042,0,135.392 c0,40.195,28.048,75.519,68.109,84.01C20.91,357.305,86.722,462.481,256,462.481c170.361,0,234.813-105.8,187.779-243.055 C484.373,210.877,512,175.124,512,135.392z M33.391,135.392c0-28.938,23.542-52.48,52.48-52.48 c19.736,0,37.35,10.843,46.323,27.762c-0.299,0.322-0.592,0.654-0.889,0.979c-0.06,0.066-0.12,0.133-0.18,0.198 c-20.48,22.327-37.495,48.906-50.155,75.843C55.613,185.449,33.391,163.946,33.391,135.392z M424.754,307.438h-62.996 c-9.22,0-16.696,7.475-16.696,16.696s7.475,16.696,16.696,16.696h57.833c-4.155,14.393-10.88,27.609-20.853,39.381l-29.909-13.95 c-8.356-3.899-18.291-0.284-22.188,8.073c-3.898,8.357-0.284,18.291,8.073,22.189l15.764,7.353 c-28.557,17.038-64.424,23.378-97.782,24.853v-55.039l29.316-33.852c9.338-10.783,1.67-27.625-12.621-27.625h-66.783 c-14.253,0-21.982,16.816-12.621,27.625l29.316,33.852v55.036c-33.087-1.473-68.976-7.778-97.64-24.917l15.622-7.286 c8.357-3.898,11.971-13.832,8.073-22.189s-13.832-11.972-22.189-8.073l-29.748,13.876c-9.911-11.689-16.638-24.776-20.923-39.306 h57.744c9.22,0,16.696-7.475,16.696-16.696s-7.475-16.696-16.696-16.696H87.137c-3.768-88.258,67.437-209.16,152.168-223.137 v44.472c0,9.22,7.475,16.696,16.696,16.696c9.22,0,16.696-7.475,16.696-16.696V84.302 C358.5,98.456,428.134,219.457,424.754,307.438z M430.918,187.705c-13.102-27.927-29.951-54.245-51.112-77.031 c8.973-16.918,26.586-27.762,46.323-27.762c28.938,0,52.48,23.542,52.48,52.48C478.609,163.872,456.439,185.501,430.918,187.705z "/> <circle cx="337.19" cy="227.478" r="22.086"/> </g> </g> </g> </g>
</svg>